<svg xmlns="http://www.w3.org/2000/svg" version="1.1" xmlns:xlink="http://www.w3.org/1999/xlink" xmlns:svgjs="http://svgjs.dev/svgjs" width="1440" height="560" preserveAspectRatio="none" viewBox="0 0 1440 560"><g mask="url(&quot;#SvgjsMask1013&quot;)" fill="none"><rect width="1440" height="560" x="0" y="0" fill="rgba(3, 46, 18, 1)"></rect><path d="M1536 560L0 560 L0 334.74Q93.1 307.84, 120 400.93Q125.13 286.06, 240 291.19Q272.96 252.15, 312 285.12Q368.86 269.98, 384 326.83Q406.12 276.94, 456 299.06Q483.94 255, 528 282.93Q577.51 260.44, 600 309.95Q699.2 289.15, 720 388.36Q770.1 318.46, 840 368.55Q880.88 289.43, 960 330.3Q1056.97 307.27, 1080 404.24Q1089.24 293.48, 1200 302.71Q1225.65 256.36, 1272 282.01Q1328.38 266.39, 1344 322.78Q1419.87 326.64, 1416 402.51Q1415.23 281.74, 1536 280.96z" fill="rgba(14, 65, 32, 1)"></path><path d="M1512 560L0 560 L0 478.9Q52.1 411, 120 463.09Q133.24 404.33, 192 417.57Q268.06 373.63, 312 449.7Q364.74 382.44, 432 435.18Q463.65 346.83, 552 378.47Q596.27 350.75, 624 395.02Q679.81 378.83, 696 434.65Q726.98 345.63, 816 376.61Q861.9 350.51, 888 396.42Q955.63 344.05, 1008 411.68Q1086.21 417.89, 1080 496.11Q1131.99 428.11, 1200 480.1Q1182.65 390.75, 1272 373.41Q1378.71 360.12, 1392 466.83Q1442.12 396.94, 1512 447.06z" fill="rgba(45, 166, 88, 1)"></path><path d="M1536 560L0 560 L0 505.56Q55.97 441.53, 120 497.5Q228.16 485.66, 240 593.82Q266.61 548.43, 312 575.04Q342.02 485.06, 432 515.08Q484.49 447.57, 552 500.06Q608.07 484.13, 624 540.19Q674.2 470.39, 744 520.59Q753.28 457.87, 816 467.15Q859.29 438.44, 888 481.74Q1000.85 474.59, 1008 587.44Q1010.9 518.35, 1080 521.25Q1103.75 473, 1152 496.75Q1237.92 462.67, 1272 548.59Q1318.08 522.67, 1344 568.75Q1355.88 508.63, 1416 520.5Q1481.72 466.23, 1536 531.95z" fill="rgba(15, 89, 41, 1)"></path></g><defs><mask id="SvgjsMask1013"><rect width="1440" height="560" fill="#ffffff"></rect></mask></defs></svg>